<?xml version="1.0" encoding="UTF-8"?>
<svg xmlns="http://www.w3.org/2000/svg" xmlns:xlink="http://www.w3.org/1999/xlink" width="595pt" height="724.2pt" viewBox="0 0 595 724.2" version="1.1">
<g id="surface1">
<path style=" stroke:none;fill-rule:evenodd;fill:rgb(85.546875%,8.227539%,18.821716%);fill-opacity:1;" d="M 600.324219 3.144531 L 600.074219 602.90625 L 3.054688 602.980469 L 2.945313 406.457031 Z M 600.324219 3.144531 "/>
<path style=" stroke:none;fill-rule:evenodd;fill:rgb(85.546875%,8.227539%,18.821716%);fill-opacity:1;" d="M 600.78125 -0.0625 L 3.46875 200.964844 L 2.65625 0.015625 Z M 600.78125 -0.0625 "/>
<path style=" stroke:none;fill-rule:evenodd;fill:rgb(85.546875%,8.227539%,18.821716%);fill-opacity:1;" d="M 247.699219 693.515625 C 247.699219 698.003906 247.867188 702.503906 247.667969 706.988281 C 247.238281 716.621094 241.261719 721.980469 230.996094 722.175781 C 221.089844 722.367188 214.292969 717.195313 213.78125 708.054688 C 213.242188 698.433594 213.65625 688.761719 213.535156 679.113281 C 213.503906 676.804688 214.5625 676.484375 216.539063 676.359375 C 225.640625 675.792969 225.636719 675.734375 225.636719 684.949219 C 225.636719 692.105469 225.648438 699.261719 225.632813 706.414063 C 225.625 709.960938 226.652344 712.894531 230.753906 712.910156 C 234.640625 712.921875 235.664063 710.003906 235.707031 706.734375 C 235.820313 698.082031 236 689.429688 235.8125 680.785156 C 235.734375 677.273438 236.824219 676.253906 240.296875 676.320313 C 247.875 676.464844 247.878906 676.285156 247.878906 684.03125 C 247.878906 687.191406 247.878906 690.351563 247.878906 693.515625 C 247.820313 693.515625 247.761719 693.515625 247.699219 693.515625 Z M 247.699219 693.515625 "/>
<path style=" stroke:none;fill-rule:evenodd;fill:rgb(85.546875%,8.227539%,18.821716%);fill-opacity:1;" d="M 265.859375 691.363281 C 272.875 685.195313 280.804688 685.726563 284.0625 692.410156 C 285.179688 694.703125 285.300781 697.222656 285.34375 699.683594 C 285.460938 705.839844 285.296875 712 285.429688 718.15625 C 285.480469 720.605469 284.9375 721.636719 282.167969 721.722656 C 273.5625 721.988281 273.566406 722.128906 273.566406 713.628906 C 273.566406 709.632813 273.566406 705.640625 273.566406 701.644531 C 273.5625 699.355469 273.214844 696.824219 270.457031 696.863281 C 267.898438 696.902344 266.433594 698.960938 266.414063 701.65625 C 266.378906 706.816406 266.113281 711.996094 266.476563 717.128906 C 266.753906 721.0625 265.289063 722.199219 261.683594 721.675781 C 260.378906 721.484375 259.015625 721.535156 257.695313 721.667969 C 255.382813 721.898438 254.496094 721.113281 254.519531 718.644531 C 254.601563 709.160156 254.53125 699.671875 254.398438 690.1875 C 254.371094 688.1875 255.121094 687.292969 256.960938 687.6875 C 260.164063 688.371094 264.957031 685.054688 265.859375 691.363281 Z M 265.859375 691.363281 "/>
<path style=" stroke:none;fill-rule:evenodd;fill:rgb(85.546875%,8.227539%,18.821716%);fill-opacity:1;" d="M 30.273438 710.363281 C 31.136719 722.710938 32.175781 721.019531 20.210938 722.125 C 10.761719 723 2.882813 717.996094 -0.464844 710.296875 C -4.539063 700.933594 -2.867188 687.730469 3.167969 681.574219 C 8.621094 676.011719 20.75 673.601563 28.429688 676.761719 C 32.832031 678.574219 30.09375 682.234375 29.964844 684.988281 C 29.789063 688.71875 27.425781 686.125 26.105469 685.777344 C 19.699219 684.074219 15.128906 685.242188 12.28125 689.488281 C 8.738281 694.78125 8.894531 702.828125 12.640625 707.875 C 15.722656 712.03125 20.625 713.34375 26.546875 711.578125 C 27.636719 711.253906 28.710938 710.875 30.273438 710.363281 Z M 30.273438 710.363281 "/>
<path style=" stroke:none;fill-rule:evenodd;fill:rgb(85.546875%,8.227539%,18.821716%);fill-opacity:1;" d="M 157.867188 704.675781 C 157.808594 693.484375 164.148438 686.8125 174.761719 686.902344 C 185.222656 686.988281 191.375 693.460938 191.417969 704.421875 C 191.464844 715.703125 185.242188 722.226563 174.515625 722.136719 C 163.964844 722.050781 157.921875 715.714844 157.867188 704.675781 Z M 157.867188 704.675781 "/>
<path style=" stroke:none;fill-rule:evenodd;fill:rgb(85.546875%,8.227539%,18.821716%);fill-opacity:1;" d="M 592.875 704.480469 C 592.925781 715.761719 587.199219 721.953125 576.566406 722.109375 C 565.761719 722.269531 559.570313 715.898438 559.570313 704.625 C 559.570313 693.546875 565.542969 687.089844 575.960938 686.902344 C 586.640625 686.710938 592.828125 693.140625 592.875 704.480469 Z M 592.875 704.480469 "/>
<path style=" stroke:none;fill-rule:evenodd;fill:rgb(85.546875%,8.227539%,18.821716%);fill-opacity:1;" d="M 82.175781 691.824219 C 89.355469 685.171875 97.265625 685.542969 100.8125 692.316406 C 101.722656 694.054688 101.792969 695.839844 101.8125 697.636719 C 101.894531 704.464844 101.730469 711.292969 101.941406 718.113281 C 102.027344 721.027344 101.015625 722.015625 98.242188 721.667969 C 97.09375 721.519531 95.890625 721.5 94.75 721.667969 C 91.273438 722.195313 90.109375 720.875 90.320313 717.328125 C 90.625 712.1875 90.421875 707.011719 90.382813 701.851563 C 90.367188 699.625 90.136719 697.027344 87.421875 696.863281 C 84.730469 696.699219 83.246094 699.003906 83.089844 701.457031 C 82.800781 706.101563 82.492188 710.820313 82.988281 715.417969 C 83.578125 720.871094 81.394531 722.566406 76.441406 721.609375 C 74.566406 721.246094 71.457031 723.273438 71.375 719.019531 C 71.183594 709.214844 71.957031 699.398438 70.957031 689.605469 C 70.867188 688.722656 71.050781 687.816406 72.101563 687.777344 C 74.925781 687.671875 77.785156 687.449219 80.574219 687.765625 C 82.738281 688.011719 81.4375 690.25 82.175781 691.824219 Z M 82.175781 691.824219 "/>
<path style=" stroke:none;fill-rule:evenodd;fill:rgb(85.546875%,8.227539%,18.821716%);fill-opacity:1;" d="M 499.113281 717.449219 C 496.191406 719.332031 494.386719 721.578125 491.28125 721.90625 C 485.574219 722.511719 480.863281 719.964844 479.582031 715.1875 C 477.855469 708.730469 480.203125 703.71875 486.058594 701.488281 C 489.359375 700.230469 492.820313 699.929688 496.324219 699.871094 C 497.207031 699.855469 498.59375 700.347656 498.75 698.988281 C 498.851563 698.132813 498.371094 696.941406 497.738281 696.324219 C 494.769531 693.425781 491.355469 694.804688 487.921875 695.308594 C 486.382813 695.53125 484.027344 698.773438 483.167969 695.238281 C 482.550781 692.71875 481.007813 688.816406 486.113281 688 C 490.710938 687.265625 495.222656 686.40625 499.929688 687.367188 C 506.421875 688.699219 509.242188 691.421875 509.527344 698.074219 C 509.832031 705.054688 509.601563 712.058594 509.769531 719.046875 C 509.816406 721.027344 509.167969 722.027344 507.285156 721.59375 C 504.339844 720.921875 499.636719 724.140625 499.113281 717.449219 Z M 499.113281 717.449219 "/>
<path style=" stroke:none;fill-rule:evenodd;fill:rgb(85.546875%,8.227539%,18.821716%);fill-opacity:1;" d="M 366.3125 707.714844 C 363.636719 707.714844 361.472656 707.648438 359.3125 707.742188 C 358.234375 707.789063 356.691406 707.113281 356.171875 708.367188 C 355.550781 709.871094 356.546875 711.28125 357.644531 712.324219 C 361.160156 715.667969 365.183594 714.789063 369.339844 713.820313 C 370.683594 713.503906 373.050781 710.933594 373.605469 714.042969 C 374.027344 716.410156 375.832031 720.171875 370.972656 721.140625 C 366.363281 722.054688 361.753906 722.328125 357.144531 721.59375 C 349.824219 720.429688 345.179688 714.414063 344.652344 705.75 C 344.140625 697.398438 348.574219 689.769531 355.132813 687.710938 C 362.199219 685.496094 369.535156 687.914063 373.128906 693.683594 C 375.613281 697.664063 377.140625 702.558594 375.394531 706.476563 C 374.007813 709.59375 369.070313 706.972656 366.3125 707.714844 Z M 366.3125 707.714844 "/>
<path style=" stroke:none;fill-rule:evenodd;fill:rgb(85.546875%,8.227539%,18.821716%);fill-opacity:1;" d="M 55.988281 707.710938 C 53.992188 707.714844 51.992188 707.625 50.003906 707.746094 C 48.769531 707.824219 46.984375 706.984375 46.410156 708.421875 C 45.75 710.082031 46.886719 711.710938 48.179688 712.753906 C 51.878906 715.746094 55.933594 714.664063 60.027344 713.652344 C 61.203125 713.359375 63.511719 710.976563 63.683594 714.160156 C 63.796875 716.335938 66.703125 719.808594 61.734375 720.953125 C 56.464844 722.171875 51.1875 722.59375 45.988281 721.304688 C 36.949219 719.0625 32.371094 708.015625 35.882813 697.578125 C 38.835938 688.816406 48.242188 684.578125 56.871094 688.121094 C 63.023438 690.652344 67.394531 699.464844 65.902344 705.964844 C 65.539063 707.546875 64.707031 707.714844 63.46875 707.707031 C 60.972656 707.699219 58.480469 707.707031 55.988281 707.710938 Z M 55.988281 707.710938 "/>
<path style=" stroke:none;fill-rule:evenodd;fill:rgb(85.546875%,8.227539%,18.821716%);fill-opacity:1;" d="M 342.425781 687.644531 C 338.867188 698.679688 335.449219 709.210938 332.085938 719.757813 C 331.59375 721.308594 330.625 721.558594 329.140625 721.6875 C 318.347656 722.613281 317.855469 722.328125 314.710938 712.214844 C 312.5 705.097656 310.363281 697.960938 308.050781 690.878906 C 307.296875 688.570313 307.5 687.710938 310.253906 687.578125 C 319.160156 687.15625 319.167969 687.035156 321.398438 695.492188 C 322.453125 699.496094 323.441406 703.515625 324.472656 707.527344 C 324.59375 708.003906 324.765625 708.464844 325.308594 710.164063 C 326.917969 703.640625 328.457031 698.234375 329.539063 692.734375 C 330.273438 688.992188 331.535156 686.742188 335.894531 687.582031 C 337.800781 687.949219 339.835938 687.644531 342.425781 687.644531 Z M 342.425781 687.644531 "/>
<path style=" stroke:none;fill-rule:evenodd;fill:rgb(85.546875%,8.227539%,18.821716%);fill-opacity:1;" d="M 457.566406 705.867188 C 457.566406 703.703125 457.429688 701.527344 457.601563 699.375 C 457.8125 696.75 457.226563 695.238281 454.152344 695.613281 C 450.636719 696.039063 451.742188 693.285156 451.679688 691.5625 C 451.617188 689.742188 450.875 687.15625 454.308594 687.664063 C 457.605469 688.148438 457.789063 686.183594 457.574219 683.773438 C 457.421875 682.042969 457.476563 680.320313 459.636719 679.859375 C 462.675781 679.207031 465.671875 676.738281 468.601563 677.910156 C 470.417969 678.640625 469.265625 681.839844 469.34375 683.921875 C 469.425781 686.011719 469.179688 688.160156 472.316406 687.628906 C 476.074219 686.996094 475.652344 689.472656 475.753906 691.871094 C 475.863281 694.410156 475.527344 696.175781 472.359375 695.652344 C 469.839844 695.234375 469.257813 696.570313 469.351563 698.824219 C 469.492188 702.148438 469.375 705.484375 469.402344 708.816406 C 469.421875 711.582031 470.121094 713.785156 473.550781 713.773438 C 477.523438 713.753906 475.203125 716.925781 475.765625 718.550781 C 476.347656 720.238281 475.761719 721.460938 473.40625 721.839844 C 461.617188 723.742188 457.566406 719.75 457.566406 705.867188 Z M 457.566406 705.867188 "/>
<path style=" stroke:none;fill-rule:evenodd;fill:rgb(85.546875%,8.227539%,18.821716%);fill-opacity:1;" d="M 124.789063 721.886719 C 115.226563 722.335938 111.617188 719.066406 111.417969 710.523438 C 111.34375 707.367188 111.339844 704.207031 111.414063 701.050781 C 111.484375 698 112.042969 695.027344 107.113281 695.480469 C 104.527344 695.71875 105.671875 692.976563 105.664063 691.601563 C 105.652344 690.238281 104.488281 687.625 107.199219 687.773438 C 110.902344 687.972656 111.699219 686.476563 111.480469 683.160156 C 111.324219 680.800781 120.34375 676.207031 122.113281 677.742188 C 123.777344 679.183594 122.886719 681.511719 122.808594 683.394531 C 122.679688 686.402344 123.242188 688.222656 126.816406 687.671875 C 130.585938 687.089844 129.507813 689.972656 129.621094 691.898438 C 129.742188 693.898438 130.039063 696.179688 126.804688 695.628906 C 123.222656 695.015625 122.636719 696.910156 122.839844 699.902344 C 123.039063 702.878906 122.707031 705.902344 123.015625 708.863281 C 123.210938 710.714844 123.441406 713.558594 125.902344 713.460938 C 131.078125 713.261719 129.609375 716.769531 129.667969 719.390625 C 129.757813 723.226563 126.582031 721.199219 124.90625 721.871094 C 124.621094 721.984375 124.25 721.886719 124.789063 721.886719 Z M 124.789063 721.886719 "/>
<path style=" stroke:none;fill-rule:evenodd;fill:rgb(85.546875%,8.227539%,18.821716%);fill-opacity:1;" d="M 428.828125 696.71875 C 425.242188 695.855469 422.597656 694.691406 419.746094 694.953125 C 418.429688 695.074219 416.960938 695.535156 416.753906 697.128906 C 416.574219 698.496094 417.738281 699.109375 418.851563 699.5625 C 420.691406 700.3125 422.53125 701.070313 424.394531 701.761719 C 429.34375 703.597656 431.222656 707.210938 430.644531 712.324219 C 430.117188 717.019531 426.925781 720.785156 422.253906 721.539063 C 419.679688 721.957031 417.058594 722.238281 414.359375 721.96875 C 405.832031 721.105469 405.820313 721.210938 406.777344 711.957031 C 410.027344 713.097656 413.238281 714.308594 416.730469 713.679688 C 417.976563 713.457031 419.089844 713.140625 419.375 711.886719 C 419.707031 710.417969 418.453125 709.917969 417.367188 709.460938 C 415.539063 708.691406 413.691406 707.957031 411.859375 707.1875 C 407.304688 705.273438 405.121094 701.835938 405.757813 696.929688 C 406.394531 692.019531 409.125 688.851563 414.0625 687.542969 C 418.242188 686.4375 422.445313 686.6875 426.386719 687.835938 C 431.261719 689.261719 427.804688 693.390625 428.828125 696.71875 Z M 428.828125 696.71875 "/>
<path style=" stroke:none;fill-rule:evenodd;fill:rgb(85.546875%,7.835388%,19.213867%);fill-opacity:1;" d="M 133.640625 704.5 C 133.640625 699.851563 133.714844 695.203125 133.605469 690.558594 C 133.554688 688.539063 134.140625 686.902344 136.253906 687.746094 C 139.070313 688.871094 143.878906 684.355469 144.867188 690.765625 C 145 691.625 145.871094 690.835938 146.304688 690.4375 C 147.035156 689.765625 147.648438 688.902344 148.488281 688.429688 C 150.527344 687.289063 153.664063 685.808594 154.886719 687.378906 C 156.769531 689.792969 155.707031 693.421875 155.378906 696.515625 C 155.273438 697.542969 153.984375 696.804688 153.246094 696.890625 C 148.007813 697.488281 145.898438 699.582031 145.707031 704.859375 C 145.539063 709.335938 145.511719 713.832031 145.691406 718.308594 C 145.792969 720.882813 145.035156 721.671875 142.375 721.71875 C 133.886719 721.875 133.890625 722.003906 133.890625 713.46875 C 133.890625 710.476563 133.890625 707.488281 133.890625 704.5 C 133.804688 704.5 133.722656 704.5 133.640625 704.5 Z M 133.640625 704.5 "/>
<path style=" stroke:none;fill-rule:evenodd;fill:rgb(85.546875%,7.835388%,19.213867%);fill-opacity:1;" d="M 527.003906 691.457031 C 527.914063 690.503906 528.515625 689.734375 529.253906 689.128906 C 531.402344 687.371094 534.511719 685.835938 536.441406 687.464844 C 538.738281 689.402344 537.324219 693.0625 537.132813 695.957031 C 537.050781 697.246094 535.589844 696.828125 534.660156 696.894531 C 529.796875 697.222656 527.578125 699.960938 527.527344 704.6875 C 527.480469 709.171875 527.328125 713.660156 527.429688 718.140625 C 527.484375 720.558594 526.988281 721.636719 524.191406 721.722656 C 515.632813 721.992188 515.648438 722.136719 515.636719 713.621094 C 515.625 706.140625 515.714844 698.65625 515.496094 691.183594 C 515.414063 688.351563 516.273438 687.113281 519.0625 687.667969 C 521.953125 688.242188 526.332031 685.417969 527.003906 691.457031 Z M 527.003906 691.457031 "/>
<path style=" stroke:none;fill-rule:evenodd;fill:rgb(85.546875%,8.227539%,18.821716%);fill-opacity:1;" d="M 392.300781 691.574219 C 393.503906 690.316406 394.082031 689.453125 394.882813 688.925781 C 397.109375 687.449219 400.351563 685.703125 402.019531 687.589844 C 403.816406 689.621094 402.671875 693.308594 402.46875 696.261719 C 402.394531 697.402344 401.152344 696.785156 400.417969 696.90625 C 394.824219 697.792969 392.972656 699.714844 392.753906 705.359375 C 392.589844 709.671875 392.574219 714 392.757813 718.3125 C 392.871094 720.898438 392.074219 721.671875 389.425781 721.71875 C 381.394531 721.859375 381.464844 721.988281 381.378906 714.054688 C 381.292969 706.261719 381.171875 698.460938 380.8125 690.679688 C 380.699219 688.222656 381.398438 687.105469 383.726563 687.695313 C 386.671875 688.441406 391.273438 684.984375 392.300781 691.574219 Z M 392.300781 691.574219 "/>
<path style=" stroke:none;fill-rule:evenodd;fill:rgb(85.546875%,8.227539%,18.821716%);fill-opacity:1;" d="M 303.636719 705.148438 C 303.636719 707.964844 303.636719 710.78125 303.636719 713.601563 C 303.636719 722.046875 302.210938 723.117188 293.644531 721.699219 C 291.769531 721.386719 291.632813 720.492188 291.632813 719.058594 C 291.652344 709.445313 291.675781 699.832031 291.613281 690.21875 C 291.601563 688.320313 292.242188 687.765625 294.15625 687.589844 C 303.644531 686.714844 303.636719 686.644531 303.636719 696.195313 C 303.636719 699.179688 303.636719 702.164063 303.636719 705.148438 Z M 303.636719 705.148438 "/>
<path style=" stroke:none;fill-rule:evenodd;fill:rgb(85.546875%,7.835388%,19.213867%);fill-opacity:1;" d="M 447.640625 704.675781 C 447.640625 709.167969 447.464844 713.667969 447.699219 718.152344 C 447.851563 721.070313 446.757813 721.699219 444.027344 721.714844 C 435.886719 721.757813 435.886719 721.878906 435.886719 713.59375 C 435.886719 706.609375 436.167969 699.605469 435.785156 692.636719 C 435.546875 688.304688 437.097656 686.992188 441.101563 687.617188 C 442.238281 687.792969 443.4375 687.753906 444.585938 687.621094 C 446.992188 687.34375 447.765625 688.316406 447.683594 690.703125 C 447.527344 695.355469 447.636719 700.019531 447.640625 704.675781 Z M 447.640625 704.675781 "/>
<path style=" stroke:none;fill-rule:evenodd;fill:rgb(85.546875%,7.835388%,19.213867%);fill-opacity:1;" d="M 541.886719 704.628906 C 541.886719 700.132813 541.992188 695.632813 541.847656 691.140625 C 541.769531 688.695313 542.320313 687.652344 545.101563 687.5625 C 553.714844 687.292969 553.710938 687.15625 553.710938 695.664063 C 553.710938 702.992188 553.527344 710.328125 553.792969 717.648438 C 553.914063 721.042969 552.730469 722.097656 549.574219 721.671875 C 548.425781 721.515625 547.226563 721.515625 546.082031 721.671875 C 542.902344 722.101563 541.589844 721.035156 541.816406 717.617188 C 542.105469 713.308594 541.886719 708.960938 541.886719 704.628906 Z M 541.886719 704.628906 "/>
<path style=" stroke:none;fill-rule:evenodd;fill:rgb(85.546875%,8.227539%,18.821716%);fill-opacity:1;" d="M 297.722656 682.515625 C 293.964844 683.03125 291.464844 683.15625 291.375 677.671875 C 291.273438 671.570313 294.660156 672.820313 298.105469 672.597656 C 301.871094 672.351563 303.835938 672.683594 303.882813 677.617188 C 303.933594 683.023438 301.480469 683.140625 297.722656 682.515625 Z M 297.722656 682.515625 "/>
<path style=" stroke:none;fill-rule:evenodd;fill:rgb(85.546875%,10.205078%,19.993591%);fill-opacity:1;" d="M 442.003906 672.777344 C 446.074219 671.992188 447.71875 672.882813 447.886719 677.679688 C 448.085938 683.417969 445.042969 682.578125 441.519531 682.71875 C 437.710938 682.867188 435.710938 682.582031 435.640625 677.605469 C 435.558594 671.914063 438.476563 672.34375 442.003906 672.777344 Z M 442.003906 672.777344 "/>
<path style=" stroke:none;fill-rule:evenodd;fill:rgb(85.546875%,10.205078%,19.993591%);fill-opacity:1;" d="M 548.199219 672.734375 C 551.996094 672.046875 553.820313 672.742188 553.960938 677.648438 C 554.125 683.351563 551.160156 682.628906 547.582031 682.71875 C 543.851563 682.804688 541.71875 682.71875 541.628906 677.636719 C 541.53125 671.882813 544.507813 672.410156 548.199219 672.734375 Z M 548.199219 672.734375 "/>
<path style=" stroke:none;fill-rule:evenodd;fill:rgb(86.326599%,10.205078%,20.384216%);fill-opacity:1;" d="M 502.984375 674.136719 C 499.742188 677.539063 499.582031 683.554688 492.960938 682.929688 C 490.972656 682.742188 490.464844 682.320313 490.984375 680.207031 C 492.664063 673.347656 493.605469 672.75 502.984375 674.136719 Z M 502.984375 674.136719 "/>
<path style=" stroke:none;fill-rule:evenodd;fill:rgb(100%,100%,100%);fill-opacity:1;" d="M 179.484375 705.0625 C 178.066406 708.03125 180.09375 713.726563 174.5625 713.71875 C 169.4375 713.707031 170.699219 708.394531 170.039063 705.15625 C 169.632813 703.167969 170.296875 700.90625 170.734375 698.820313 C 171.164063 696.75 172.394531 695.082031 174.71875 695.140625 C 177.023438 695.199219 178.15625 696.898438 178.578125 698.976563 C 178.972656 700.910156 179.167969 702.886719 179.484375 705.0625 Z M 179.484375 705.0625 "/>
<path style=" stroke:none;fill-rule:evenodd;fill:rgb(100%,99.21875%,99.609375%);fill-opacity:1;" d="M 580.808594 704.808594 C 580.601563 706.660156 580.550781 708.660156 580.109375 710.570313 C 579.675781 712.421875 578.503906 713.992188 576.394531 714.007813 C 574.375 714.019531 573.132813 712.734375 572.558594 710.796875 C 571.351563 706.734375 571.300781 702.699219 572.472656 698.59375 C 573.042969 696.601563 574.234375 695.121094 576.117188 695.054688 C 578.3125 694.972656 579.734375 696.679688 580.179688 698.769531 C 580.589844 700.691406 580.605469 702.695313 580.808594 704.808594 Z M 580.808594 704.808594 "/>
<path style=" stroke:none;fill-rule:evenodd;fill:rgb(100%,100%,100%);fill-opacity:1;" d="M 497.035156 705.277344 C 498.253906 704.929688 499.289063 705.085938 499.347656 707.058594 C 499.464844 710.820313 496.703125 714.550781 493.59375 714.585938 C 490.921875 714.617188 489.539063 713.132813 489.683594 710.570313 C 489.933594 706.132813 493.296875 705.628906 497.035156 705.277344 Z M 497.035156 705.277344 "/>
<path style=" stroke:none;fill-rule:evenodd;fill:rgb(100%,98.4375%,98.4375%);fill-opacity:1;" d="M 360.765625 702.066406 C 358.898438 700.816406 355.5625 703.425781 355.722656 699.5 C 355.839844 696.675781 357.367188 694.457031 360.605469 694.3125 C 364.21875 694.15625 365.078125 696.910156 365.21875 699.558594 C 365.441406 703.769531 361.738281 700.199219 360.765625 702.066406 Z M 360.765625 702.066406 "/>
<path style=" stroke:none;fill-rule:evenodd;fill:rgb(100%,98.826599%,99.21875%);fill-opacity:1;" d="M 50.625 701.917969 C 49.144531 700.683594 45.753906 703.566406 45.8125 699.65625 C 45.855469 696.578125 47.625 694.226563 51.117188 694.320313 C 54.308594 694.40625 55.28125 696.882813 55.378906 699.484375 C 55.53125 703.523438 52.175781 700.746094 50.625 701.917969 Z M 50.625 701.917969 "/>
<path style=" stroke:none;fill-rule:evenodd;fill:rgb(100%,100%,100%);fill-opacity:1;" d="M 547.050781 495.261719 C 548.460938 497.046875 550.523438 496.554688 552.210938 497.042969 C 570.222656 502.257813 582.015625 517.15625 581.394531 534.070313 C 580.601563 555.714844 568.9375 569.417969 547.710938 573.589844 C 538.535156 575.390625 529.238281 575.882813 519.914063 575.890625 L 424.371094 576.003906 L 424.335938 417.289063 C 457.476563 417.515625 495.441406 417.4375 528.582031 417.578125 C 537.949219 417.617188 547.160156 419.007813 555.847656 422.691406 C 570.667969 428.972656 578.457031 440.195313 578.605469 456.363281 C 578.757813 472.480469 572.101563 484.597656 557.074219 491.433594 C 553.847656 492.902344 550.445313 493.976563 547.050781 495.261719 Z M 481.648438 447.394531 C 489.605469 447.65625 499.921875 446.582031 507.738281 448.773438 C 515.652344 450.992188 518.789063 455.277344 518.679688 463.21875 C 518.589844 469.972656 514.714844 474.644531 507.503906 476.601563 C 499.660156 478.730469 489.929688 477.617188 481.976563 477.867188 Z M 481.523438 510.71875 C 488.480469 511.039063 498.292969 510.253906 505.238281 511.382813 C 514.976563 512.964844 520.152344 517.882813 520.488281 526.132813 C 520.808594 533.90625 515.957031 539.707031 506.832031 542.011719 C 499.355469 543.898438 489.40625 543.316406 481.785156 543.410156 Z M 481.523438 510.71875 "/>
<path style=" stroke:none;fill-rule:evenodd;fill:rgb(100%,100%,100%);fill-opacity:1;" d="M 113.636719 496.308594 L 113.4375 417.460938 C 156.246094 417.582031 208.128906 417.589844 250.941406 417.453125 L 251.050781 455.71875 C 228.230469 455.574219 195.484375 455.738281 172.664063 455.550781 L 172.628906 477.742188 C 193.949219 477.539063 225.761719 477.816406 247.082031 477.515625 L 247.230469 515.851563 C 225.910156 515.628906 193.8125 515.847656 172.492188 515.65625 L 172.5625 537.464844 C 195.382813 537.3125 229.546875 537.558594 252.363281 537.253906 L 252.1875 575.484375 C 208.878906 575.355469 156.777344 575.347656 113.46875 575.492188 C 112.492188 575.496094 113.636719 505.125 113.636719 496.308594 Z M 113.636719 496.308594 "/>
<path style=" stroke:none;fill-rule:evenodd;fill:rgb(100%,100%,100%);fill-opacity:1;" d="M 396.738281 461.503906 C 380.261719 456.042969 363.953125 453.359375 347.183594 453.753906 C 342.015625 453.878906 336.875 454.292969 331.972656 456.09375 C 328.351563 457.425781 325.414063 459.511719 325.277344 463.824219 C 325.140625 468.277344 328.199219 470.265625 331.792969 471.621094 C 341.328125 475.21875 351.433594 476.472656 361.316406 478.644531 C 374.117188 481.453125 386.179688 485.488281 395.957031 494.949219 C 411.542969 510.039063 413.257813 549.621094 383.53125 565.894531 C 371.445313 572.511719 358.457031 575.492188 344.960938 576.601563 C 319.730469 578.675781 291.164063 574.265625 266.492188 568.988281 L 266.640625 529.539063 C 277.199219 533.59375 287.660156 536.589844 298.515625 538.0625 C 310.089844 539.632813 321.679688 540.65625 333.292969 538.589844 C 335.71875 538.15625 338.160156 537.476563 340.425781 536.515625 C 343.691406 535.128906 346.8125 533.359375 346.816406 529.09375 C 346.820313 524.925781 343.980469 522.972656 340.679688 521.441406 C 335.210938 518.90625 329.339844 517.765625 323.476563 516.640625 C 313.183594 514.664063 302.988281 512.304688 293.261719 508.347656 C 276.691406 501.605469 267.058594 489.554688 265.582031 471.453125 C 263.945313 451.347656 271.324219 435.992188 289.582031 426.597656 C 305.863281 418.222656 323.585938 416.824219 341.464844 416.382813 C 358.667969 415.960938 379.929688 420.890625 396.847656 423.820313 Z M 396.738281 461.503906 "/>
<path style=" stroke:none;fill-rule:evenodd;fill:rgb(100%,100%,100%);fill-opacity:1;" d="M 92.394531 497.695313 C 92.394531 522.003906 92.308594 551.410156 92.484375 575.714844 L 31.800781 575.710938 L 31.851563 418.542969 C 48.996094 418.777344 75.21875 418.769531 92.363281 418.546875 Z M 92.394531 497.695313 "/>
<path style=" stroke:none;fill-rule:evenodd;fill:rgb(85.546875%,8.227539%,18.821716%);fill-opacity:1;" d="M 481.523438 510.71875 C 488.480469 511.039063 498.292969 510.253906 505.238281 511.382813 C 514.976563 512.964844 520.152344 517.882813 520.488281 526.132813 C 520.808594 533.90625 515.957031 539.707031 506.832031 542.011719 C 499.355469 543.898438 489.40625 543.316406 481.785156 543.410156 Z M 481.523438 510.71875 "/>
<path style=" stroke:none;fill-rule:evenodd;fill:rgb(85.546875%,8.227539%,18.821716%);fill-opacity:1;" d="M 481.648438 447.394531 C 489.605469 447.65625 499.921875 446.582031 507.738281 448.773438 C 515.652344 450.992188 518.789063 455.277344 518.679688 463.21875 C 518.589844 469.972656 514.714844 474.644531 507.503906 476.601563 C 499.660156 478.730469 489.929688 477.617188 481.976563 477.867188 Z M 481.648438 447.394531 "/>
</g>
</svg>
