<svg xmlns="http://www.w3.org/2000/svg" xmlns:xlink="http://www.w3.org/1999/xlink" width="500" zoomAndPan="magnify" viewBox="0 0 375 374.999991" height="500" preserveAspectRatio="xMidYMid meet" version="1.0"><defs><g/><clipPath id="e86bc80830"><path d="M 263 82 L 356 82 L 356 159 L 263 159 Z M 263 82 " clip-rule="nonzero"/></clipPath><clipPath id="e76b96ea14"><path d="M 263.285156 82.566406 L 329.171875 51.71875 L 370.195312 139.339844 L 304.3125 170.1875 Z M 263.285156 82.566406 " clip-rule="nonzero"/></clipPath><clipPath id="303f43d2b9"><path d="M 263.285156 82.566406 L 329.171875 51.71875 L 370.195312 139.339844 L 304.3125 170.1875 Z M 263.285156 82.566406 " clip-rule="nonzero"/></clipPath></defs><g clip-path="url(#e86bc80830)"><g clip-path="url(#e76b96ea14)"><g clip-path="url(#303f43d2b9)"><path fill="#021059" d="M 349.414062 97.082031 L 264.882812 82.320312 C 264.101562 82.183594 263.527344 83.027344 263.917969 83.707031 L 305.667969 158.09375 C 306.074219 158.804688 307.105469 158.714844 307.359375 157.949219 L 316.984375 130.703125 C 317.1875 130.140625 317.863281 129.898438 318.375 130.230469 L 346.785156 149.460938 C 347.214844 149.761719 347.796875 149.632812 348.070312 149.21875 L 355.128906 138.703125 C 355.398438 138.289062 355.300781 137.691406 354.882812 137.421875 L 327.003906 118.550781 C 326.476562 118.1875 326.453125 117.445312 326.957031 117.066406 L 349.878906 98.765625 C 350.488281 98.230469 350.222656 97.207031 349.414062 97.082031 Z M 349.414062 97.082031 " fill-opacity="1" fill-rule="nonzero"/></g></g></g><g fill="#56667d" fill-opacity="1"><g transform="translate(0.0000045, 221.842471)"><g><path d="M 30.4375 0.6875 C 25.65625 0.6875 21.347656 -0.128906 17.515625 -1.765625 C 13.691406 -3.398438 10.664062 -5.753906 8.4375 -8.828125 C 6.21875 -11.910156 5.070312 -15.546875 5 -19.734375 L 19.734375 -19.734375 C 19.929688 -16.921875 20.929688 -14.695312 22.734375 -13.0625 C 24.535156 -11.425781 27.003906 -10.609375 30.140625 -10.609375 C 33.347656 -10.609375 35.867188 -11.375 37.703125 -12.90625 C 39.535156 -14.445312 40.453125 -16.460938 40.453125 -18.953125 C 40.453125 -20.984375 39.828125 -22.648438 38.578125 -23.953125 C 37.335938 -25.265625 35.785156 -26.296875 33.921875 -27.046875 C 32.054688 -27.804688 29.488281 -28.640625 26.21875 -29.546875 C 21.769531 -30.859375 18.148438 -32.148438 15.359375 -33.421875 C 12.578125 -34.703125 10.1875 -36.632812 8.1875 -39.21875 C 6.195312 -41.8125 5.203125 -45.265625 5.203125 -49.578125 C 5.203125 -53.640625 6.21875 -57.175781 8.25 -60.1875 C 10.28125 -63.195312 13.125 -65.503906 16.78125 -67.109375 C 20.445312 -68.710938 24.640625 -69.515625 29.359375 -69.515625 C 36.429688 -69.515625 42.175781 -67.796875 46.59375 -64.359375 C 51.007812 -60.921875 53.445312 -56.128906 53.90625 -49.984375 L 38.78125 -49.984375 C 38.65625 -52.335938 37.65625 -54.28125 35.78125 -55.8125 C 33.914062 -57.351562 31.445312 -58.125 28.375 -58.125 C 25.6875 -58.125 23.539062 -57.4375 21.9375 -56.0625 C 20.34375 -54.6875 19.546875 -52.691406 19.546875 -50.078125 C 19.546875 -48.242188 20.148438 -46.71875 21.359375 -45.5 C 22.566406 -44.289062 24.070312 -43.3125 25.875 -42.5625 C 27.675781 -41.8125 30.210938 -40.945312 33.484375 -39.96875 C 37.929688 -38.65625 41.5625 -37.34375 44.375 -36.03125 C 47.195312 -34.726562 49.617188 -32.765625 51.640625 -30.140625 C 53.671875 -27.523438 54.6875 -24.085938 54.6875 -19.828125 C 54.6875 -16.160156 53.738281 -12.753906 51.84375 -9.609375 C 49.945312 -6.472656 47.164062 -3.972656 43.5 -2.109375 C 39.832031 -0.242188 35.476562 0.6875 30.4375 0.6875 Z M 30.4375 0.6875 "/></g></g></g><g fill="#56667d" fill-opacity="1"><g transform="translate(56.649422, 221.842471)"><g><path d="M 57.34375 -28.375 C 57.34375 -26.414062 57.210938 -24.648438 56.953125 -23.078125 L 17.1875 -23.078125 C 17.507812 -19.148438 18.878906 -16.070312 21.296875 -13.84375 C 23.722656 -11.613281 26.703125 -10.5 30.234375 -10.5 C 35.347656 -10.5 38.984375 -12.691406 41.140625 -17.078125 L 55.96875 -17.078125 C 54.394531 -11.847656 51.378906 -7.546875 46.921875 -4.171875 C 42.472656 -0.796875 37.007812 0.890625 30.53125 0.890625 C 25.300781 0.890625 20.609375 -0.269531 16.453125 -2.59375 C 12.296875 -4.925781 9.050781 -8.21875 6.71875 -12.46875 C 4.394531 -16.726562 3.234375 -21.640625 3.234375 -27.203125 C 3.234375 -32.828125 4.378906 -37.765625 6.671875 -42.015625 C 8.960938 -46.273438 12.171875 -49.550781 16.296875 -51.84375 C 20.421875 -54.132812 25.164062 -55.28125 30.53125 -55.28125 C 35.707031 -55.28125 40.335938 -54.164062 44.421875 -51.9375 C 48.515625 -49.71875 51.691406 -46.5625 53.953125 -42.46875 C 56.210938 -38.375 57.34375 -33.675781 57.34375 -28.375 Z M 43.109375 -32.296875 C 43.035156 -35.835938 41.753906 -38.671875 39.265625 -40.796875 C 36.785156 -42.921875 33.742188 -43.984375 30.140625 -43.984375 C 26.734375 -43.984375 23.867188 -42.953125 21.546875 -40.890625 C 19.222656 -38.828125 17.800781 -35.960938 17.28125 -32.296875 Z M 43.109375 -32.296875 "/></g></g></g><g fill="#56667d" fill-opacity="1"><g transform="translate(114.084271, 221.842471)"><g><path d="M 28.078125 -55.28125 C 32.140625 -55.28125 35.707031 -54.476562 38.78125 -52.875 C 41.863281 -51.269531 44.285156 -49.191406 46.046875 -46.640625 L 46.046875 -54.390625 L 59.890625 -54.390625 L 59.890625 0.390625 C 59.890625 5.429688 58.875 9.929688 56.84375 13.890625 C 54.820312 17.847656 51.78125 20.988281 47.71875 23.3125 C 43.65625 25.644531 38.742188 26.8125 32.984375 26.8125 C 25.265625 26.8125 18.929688 25.007812 13.984375 21.40625 C 9.046875 17.800781 6.25 12.890625 5.59375 6.671875 L 19.25 6.671875 C 19.96875 9.160156 21.519531 11.140625 23.90625 12.609375 C 26.300781 14.085938 29.195312 14.828125 32.59375 14.828125 C 36.59375 14.828125 39.832031 13.628906 42.3125 11.234375 C 44.800781 8.847656 46.046875 5.234375 46.046875 0.390625 L 46.046875 -8.046875 C 44.285156 -5.492188 41.847656 -3.363281 38.734375 -1.65625 C 35.628906 0.0390625 32.078125 0.890625 28.078125 0.890625 C 23.492188 0.890625 19.300781 -0.285156 15.5 -2.640625 C 11.707031 -5.003906 8.710938 -8.328125 6.515625 -12.609375 C 4.328125 -16.898438 3.234375 -21.828125 3.234375 -27.390625 C 3.234375 -32.890625 4.328125 -37.765625 6.515625 -42.015625 C 8.710938 -46.273438 11.691406 -49.550781 15.453125 -51.84375 C 19.222656 -54.132812 23.429688 -55.28125 28.078125 -55.28125 Z M 46.046875 -27.203125 C 46.046875 -30.535156 45.390625 -33.394531 44.078125 -35.78125 C 42.773438 -38.175781 41.007812 -40.007812 38.78125 -41.28125 C 36.5625 -42.5625 34.171875 -43.203125 31.609375 -43.203125 C 29.054688 -43.203125 26.703125 -42.578125 24.546875 -41.328125 C 22.390625 -40.085938 20.640625 -38.269531 19.296875 -35.875 C 17.953125 -33.488281 17.28125 -30.660156 17.28125 -27.390625 C 17.28125 -24.117188 17.953125 -21.253906 19.296875 -18.796875 C 20.640625 -16.347656 22.40625 -14.46875 24.59375 -13.15625 C 26.789062 -11.84375 29.128906 -11.1875 31.609375 -11.1875 C 34.171875 -11.1875 36.5625 -11.820312 38.78125 -13.09375 C 41.007812 -14.375 42.773438 -16.207031 44.078125 -18.59375 C 45.390625 -20.988281 46.046875 -23.859375 46.046875 -27.203125 Z M 46.046875 -27.203125 "/></g></g></g><g fill="#56667d" fill-opacity="1"><g transform="translate(177.508087, 221.842471)"><g><path d="M 3.234375 -27.390625 C 3.234375 -32.890625 4.328125 -37.765625 6.515625 -42.015625 C 8.710938 -46.273438 11.691406 -49.550781 15.453125 -51.84375 C 19.222656 -54.132812 23.429688 -55.28125 28.078125 -55.28125 C 32.140625 -55.28125 35.691406 -54.460938 38.734375 -52.828125 C 41.773438 -51.191406 44.210938 -49.128906 46.046875 -46.640625 L 46.046875 -54.390625 L 59.890625 -54.390625 L 59.890625 0 L 46.046875 0 L 46.046875 -7.953125 C 44.285156 -5.398438 41.847656 -3.285156 38.734375 -1.609375 C 35.628906 0.0546875 32.046875 0.890625 27.984375 0.890625 C 23.398438 0.890625 19.222656 -0.285156 15.453125 -2.640625 C 11.691406 -5.003906 8.710938 -8.328125 6.515625 -12.609375 C 4.328125 -16.898438 3.234375 -21.828125 3.234375 -27.390625 Z M 46.046875 -27.203125 C 46.046875 -30.535156 45.390625 -33.394531 44.078125 -35.78125 C 42.773438 -38.175781 41.007812 -40.007812 38.78125 -41.28125 C 36.5625 -42.5625 34.171875 -43.203125 31.609375 -43.203125 C 29.054688 -43.203125 26.703125 -42.578125 24.546875 -41.328125 C 22.390625 -40.085938 20.640625 -38.269531 19.296875 -35.875 C 17.953125 -33.488281 17.28125 -30.660156 17.28125 -27.390625 C 17.28125 -24.117188 17.953125 -21.253906 19.296875 -18.796875 C 20.640625 -16.347656 22.40625 -14.46875 24.59375 -13.15625 C 26.789062 -11.84375 29.128906 -11.1875 31.609375 -11.1875 C 34.171875 -11.1875 36.5625 -11.820312 38.78125 -13.09375 C 41.007812 -14.375 42.773438 -16.207031 44.078125 -18.59375 C 45.390625 -20.988281 46.046875 -23.859375 46.046875 -27.203125 Z M 46.046875 -27.203125 "/></g></g></g><g fill="#021059" fill-opacity="1"><g transform="translate(240.937489, 221.842471)"><g><path d="M 22.78125 -43.109375 L 22.78125 -16.796875 C 22.78125 -14.960938 23.222656 -13.632812 24.109375 -12.8125 C 24.992188 -12 26.484375 -11.59375 28.578125 -11.59375 L 34.953125 -11.59375 L 34.953125 0 L 26.3125 0 C 14.726562 0 8.9375 -5.628906 8.9375 -16.890625 L 8.9375 -43.109375 L 2.453125 -43.109375 L 2.453125 -54.390625 L 8.9375 -54.390625 L 8.9375 -67.84375 L 22.78125 -67.84375 L 22.78125 -54.390625 L 34.953125 -54.390625 L 34.953125 -43.109375 Z M 22.78125 -43.109375 "/></g></g></g><g fill="#021059" fill-opacity="1"><g transform="translate(275.889173, 221.842471)"><g><path d="M 22.78125 -43.109375 L 22.78125 -16.796875 C 22.78125 -14.960938 23.222656 -13.632812 24.109375 -12.8125 C 24.992188 -12 26.484375 -11.59375 28.578125 -11.59375 L 34.953125 -11.59375 L 34.953125 0 L 26.3125 0 C 14.726562 0 8.9375 -5.628906 8.9375 -16.890625 L 8.9375 -43.109375 L 2.453125 -43.109375 L 2.453125 -54.390625 L 8.9375 -54.390625 L 8.9375 -67.84375 L 22.78125 -67.84375 L 22.78125 -54.390625 L 34.953125 -54.390625 L 34.953125 -43.109375 Z M 22.78125 -43.109375 "/></g></g></g><g fill="#56667d" fill-opacity="1"><g transform="translate(310.851547, 221.842471)"><g><path d="M 30.921875 0.890625 C 25.691406 0.890625 20.976562 -0.269531 16.78125 -2.59375 C 12.59375 -4.925781 9.304688 -8.21875 6.921875 -12.46875 C 4.535156 -16.726562 3.34375 -21.640625 3.34375 -27.203125 C 3.34375 -32.765625 4.566406 -37.671875 7.015625 -41.921875 C 9.472656 -46.179688 12.828125 -49.472656 17.078125 -51.796875 C 21.335938 -54.117188 26.085938 -55.28125 31.328125 -55.28125 C 36.554688 -55.28125 41.296875 -54.117188 45.546875 -51.796875 C 49.804688 -49.472656 53.164062 -46.179688 55.625 -41.921875 C 58.082031 -37.671875 59.3125 -32.765625 59.3125 -27.203125 C 59.3125 -21.640625 58.050781 -16.726562 55.53125 -12.46875 C 53.007812 -8.21875 49.601562 -4.925781 45.3125 -2.59375 C 41.019531 -0.269531 36.222656 0.890625 30.921875 0.890625 Z M 30.921875 -11.09375 C 33.410156 -11.09375 35.75 -11.695312 37.9375 -12.90625 C 40.132812 -14.125 41.890625 -15.941406 43.203125 -18.359375 C 44.515625 -20.785156 45.171875 -23.734375 45.171875 -27.203125 C 45.171875 -32.367188 43.8125 -36.34375 41.09375 -39.125 C 38.375 -41.90625 35.050781 -43.296875 31.125 -43.296875 C 27.195312 -43.296875 23.90625 -41.90625 21.25 -39.125 C 18.601562 -36.34375 17.28125 -32.367188 17.28125 -27.203125 C 17.28125 -22.023438 18.570312 -18.046875 21.15625 -15.265625 C 23.738281 -12.484375 26.992188 -11.09375 30.921875 -11.09375 Z M 30.921875 -11.09375 "/></g></g></g><g fill="#021059" fill-opacity="1"><g transform="translate(176.995994, 245.177197)"><g><path d="M 11 -14.875 L 11 -11.96875 L 4.9375 -11.96875 L 4.9375 -8.828125 L 9.46875 -8.828125 L 9.46875 -6.015625 L 4.9375 -6.015625 L 4.9375 0 L 1.3125 0 L 1.3125 -14.875 Z M 11 -14.875 "/></g></g></g><g fill="#021059" fill-opacity="1"><g transform="translate(196.848852, 245.177197)"><g><path d="M 8.90625 0 L 5.8125 -5.609375 L 4.9375 -5.609375 L 4.9375 0 L 1.3125 0 L 1.3125 -14.875 L 7.390625 -14.875 C 8.566406 -14.875 9.566406 -14.664062 10.390625 -14.25 C 11.210938 -13.84375 11.828125 -13.28125 12.234375 -12.5625 C 12.648438 -11.851562 12.859375 -11.0625 12.859375 -10.1875 C 12.859375 -9.195312 12.578125 -8.3125 12.015625 -7.53125 C 11.460938 -6.757812 10.644531 -6.210938 9.5625 -5.890625 L 12.984375 0 Z M 4.9375 -8.171875 L 7.1875 -8.171875 C 7.84375 -8.171875 8.335938 -8.332031 8.671875 -8.65625 C 9.003906 -8.988281 9.171875 -9.453125 9.171875 -10.046875 C 9.171875 -10.609375 9.003906 -11.050781 8.671875 -11.375 C 8.335938 -11.695312 7.84375 -11.859375 7.1875 -11.859375 L 4.9375 -11.859375 Z M 4.9375 -8.171875 "/></g></g></g><g fill="#021059" fill-opacity="1"><g transform="translate(218.926395, 245.177197)"><g><path d="M 8.34375 0.140625 C 6.945312 0.140625 5.664062 -0.179688 4.5 -0.828125 C 3.332031 -1.472656 2.40625 -2.378906 1.71875 -3.546875 C 1.039062 -4.710938 0.703125 -6.023438 0.703125 -7.484375 C 0.703125 -8.929688 1.039062 -10.234375 1.71875 -11.390625 C 2.40625 -12.554688 3.332031 -13.460938 4.5 -14.109375 C 5.664062 -14.753906 6.945312 -15.078125 8.34375 -15.078125 C 9.75 -15.078125 11.03125 -14.753906 12.1875 -14.109375 C 13.351562 -13.460938 14.269531 -12.554688 14.9375 -11.390625 C 15.613281 -10.234375 15.953125 -8.929688 15.953125 -7.484375 C 15.953125 -6.023438 15.613281 -4.710938 14.9375 -3.546875 C 14.257812 -2.378906 13.34375 -1.472656 12.1875 -0.828125 C 11.03125 -0.179688 9.75 0.140625 8.34375 0.140625 Z M 8.34375 -3.15625 C 9.53125 -3.15625 10.476562 -3.550781 11.1875 -4.34375 C 11.90625 -5.132812 12.265625 -6.179688 12.265625 -7.484375 C 12.265625 -8.796875 11.90625 -9.84375 11.1875 -10.625 C 10.476562 -11.40625 9.53125 -11.796875 8.34375 -11.796875 C 7.144531 -11.796875 6.1875 -11.40625 5.46875 -10.625 C 4.757812 -9.851562 4.40625 -8.804688 4.40625 -7.484375 C 4.40625 -6.171875 4.757812 -5.117188 5.46875 -4.328125 C 6.1875 -3.546875 7.144531 -3.15625 8.34375 -3.15625 Z M 8.34375 -3.15625 "/></g></g></g><g fill="#021059" fill-opacity="1"><g transform="translate(243.843059, 245.177197)"><g><path d="M 14.625 0 L 11 0 L 4.9375 -9.171875 L 4.9375 0 L 1.3125 0 L 1.3125 -14.875 L 4.9375 -14.875 L 11 -5.65625 L 11 -14.875 L 14.625 -14.875 Z M 14.625 0 "/></g></g></g><g fill="#021059" fill-opacity="1"><g transform="translate(268.039346, 245.177197)"><g><path d="M 12.015625 -14.875 L 12.015625 -11.96875 L 8.078125 -11.96875 L 8.078125 0 L 4.453125 0 L 4.453125 -11.96875 L 0.515625 -11.96875 L 0.515625 -14.875 Z M 12.015625 -14.875 "/></g></g></g><g fill="#021059" fill-opacity="1"><g transform="translate(288.824448, 245.177197)"><g><path d="M 10.421875 -8.9375 L 10.421875 -5.9375 L 1.109375 -5.9375 L 1.109375 -8.9375 Z M 10.421875 -8.9375 "/></g></g></g><g fill="#021059" fill-opacity="1"><g transform="translate(309.37649, 245.177197)"><g><path d="M 4.9375 -11.96875 L 4.9375 -8.96875 L 9.78125 -8.96875 L 9.78125 -6.171875 L 4.9375 -6.171875 L 4.9375 -2.90625 L 10.421875 -2.90625 L 10.421875 0 L 1.3125 0 L 1.3125 -14.875 L 10.421875 -14.875 L 10.421875 -11.96875 Z M 4.9375 -11.96875 "/></g></g></g><g fill="#021059" fill-opacity="1"><g transform="translate(329.102212, 245.177197)"><g><path d="M 14.625 0 L 11 0 L 4.9375 -9.171875 L 4.9375 0 L 1.3125 0 L 1.3125 -14.875 L 4.9375 -14.875 L 11 -5.65625 L 11 -14.875 L 14.625 -14.875 Z M 14.625 0 "/></g></g></g><g fill="#021059" fill-opacity="1"><g transform="translate(353.298499, 245.177197)"><g><path d="M 6.890625 -14.875 C 8.453125 -14.875 9.816406 -14.5625 10.984375 -13.9375 C 12.160156 -13.320312 13.070312 -12.453125 13.71875 -11.328125 C 14.363281 -10.203125 14.6875 -8.90625 14.6875 -7.4375 C 14.6875 -5.976562 14.363281 -4.679688 13.71875 -3.546875 C 13.070312 -2.421875 12.160156 -1.546875 10.984375 -0.921875 C 9.804688 -0.304688 8.441406 0 6.890625 0 L 1.3125 0 L 1.3125 -14.875 Z M 6.65625 -3.140625 C 8.019531 -3.140625 9.082031 -3.507812 9.84375 -4.25 C 10.613281 -5 11 -6.0625 11 -7.4375 C 11 -8.800781 10.613281 -9.863281 9.84375 -10.625 C 9.082031 -11.394531 8.019531 -11.78125 6.65625 -11.78125 L 4.9375 -11.78125 L 4.9375 -3.140625 Z M 6.65625 -3.140625 "/></g></g></g><g fill="#56667d" fill-opacity="1"><g transform="translate(55.747551, 152.092476)"><g><path d="M 8.1875 -17.6875 C 10.050781 -17.6875 11.675781 -17.316406 13.0625 -16.578125 C 14.457031 -15.835938 15.535156 -14.796875 16.296875 -13.453125 C 17.066406 -12.117188 17.453125 -10.582031 17.453125 -8.84375 C 17.453125 -7.113281 17.066406 -5.578125 16.296875 -4.234375 C 15.535156 -2.890625 14.453125 -1.847656 13.046875 -1.109375 C 11.648438 -0.367188 10.03125 0 8.1875 0 L 1.5625 0 L 1.5625 -17.6875 Z M 7.90625 -3.734375 C 9.539062 -3.734375 10.8125 -4.175781 11.71875 -5.0625 C 12.625 -5.945312 13.078125 -7.207031 13.078125 -8.84375 C 13.078125 -10.46875 12.625 -11.734375 11.71875 -12.640625 C 10.8125 -13.546875 9.539062 -14 7.90625 -14 L 5.875 -14 L 5.875 -3.734375 Z M 7.90625 -3.734375 "/></g></g></g><g fill="#56667d" fill-opacity="1"><g transform="translate(83.879299, 152.092476)"><g><path d="M 5.875 -14.234375 L 5.875 -10.65625 L 11.640625 -10.65625 L 11.640625 -7.328125 L 5.875 -7.328125 L 5.875 -3.453125 L 12.390625 -3.453125 L 12.390625 0 L 1.5625 0 L 1.5625 -17.6875 L 12.390625 -17.6875 L 12.390625 -14.234375 Z M 5.875 -14.234375 "/></g></g></g><g fill="#56667d" fill-opacity="1"><g transform="translate(107.3269, 152.092476)"><g><path d="M 18.15625 -17.6875 L 11.890625 0 L 6.5 0 L 0.234375 -17.6875 L 4.8125 -17.6875 L 9.1875 -4.328125 L 13.59375 -17.6875 Z M 18.15625 -17.6875 "/></g></g></g><g fill="#56667d" fill-opacity="1"><g transform="translate(135.534198, 152.092476)"><g><path d="M 5.875 -14.234375 L 5.875 -10.65625 L 11.640625 -10.65625 L 11.640625 -7.328125 L 5.875 -7.328125 L 5.875 -3.453125 L 12.390625 -3.453125 L 12.390625 0 L 1.5625 0 L 1.5625 -17.6875 L 12.390625 -17.6875 L 12.390625 -14.234375 Z M 5.875 -14.234375 "/></g></g></g><g fill="#56667d" fill-opacity="1"><g transform="translate(158.981802, 152.092476)"><g><path d="M 5.875 -3.328125 L 11.515625 -3.328125 L 11.515625 0 L 1.5625 0 L 1.5625 -17.6875 L 5.875 -17.6875 Z M 5.875 -3.328125 "/></g></g></g><g fill="#56667d" fill-opacity="1"><g transform="translate(180.817654, 152.092476)"><g><path d="M 9.921875 0.171875 C 8.265625 0.171875 6.742188 -0.210938 5.359375 -0.984375 C 3.972656 -1.753906 2.867188 -2.832031 2.046875 -4.21875 C 1.234375 -5.601562 0.828125 -7.160156 0.828125 -8.890625 C 0.828125 -10.617188 1.234375 -12.171875 2.046875 -13.546875 C 2.867188 -14.921875 3.972656 -15.992188 5.359375 -16.765625 C 6.742188 -17.546875 8.265625 -17.9375 9.921875 -17.9375 C 11.585938 -17.9375 13.113281 -17.546875 14.5 -16.765625 C 15.882812 -15.992188 16.972656 -14.921875 17.765625 -13.546875 C 18.566406 -12.171875 18.96875 -10.617188 18.96875 -8.890625 C 18.96875 -7.160156 18.5625 -5.601562 17.75 -4.21875 C 16.945312 -2.832031 15.859375 -1.753906 14.484375 -0.984375 C 13.109375 -0.210938 11.585938 0.171875 9.921875 0.171875 Z M 9.921875 -3.75 C 11.335938 -3.75 12.46875 -4.21875 13.3125 -5.15625 C 14.15625 -6.101562 14.578125 -7.347656 14.578125 -8.890625 C 14.578125 -10.453125 14.15625 -11.695312 13.3125 -12.625 C 12.46875 -13.5625 11.335938 -14.03125 9.921875 -14.03125 C 8.492188 -14.03125 7.351562 -13.566406 6.5 -12.640625 C 5.65625 -11.722656 5.234375 -10.472656 5.234375 -8.890625 C 5.234375 -7.328125 5.65625 -6.078125 6.5 -5.140625 C 7.351562 -4.210938 8.492188 -3.75 9.921875 -3.75 Z M 9.921875 -3.75 "/></g></g></g><g fill="#56667d" fill-opacity="1"><g transform="translate(210.435236, 152.092476)"><g><path d="M 15.03125 -11.984375 C 15.03125 -10.960938 14.796875 -10.023438 14.328125 -9.171875 C 13.859375 -8.328125 13.132812 -7.644531 12.15625 -7.125 C 11.1875 -6.601562 9.976562 -6.34375 8.53125 -6.34375 L 5.875 -6.34375 L 5.875 0 L 1.5625 0 L 1.5625 -17.6875 L 8.53125 -17.6875 C 9.945312 -17.6875 11.140625 -17.441406 12.109375 -16.953125 C 13.085938 -16.460938 13.816406 -15.789062 14.296875 -14.9375 C 14.785156 -14.082031 15.03125 -13.097656 15.03125 -11.984375 Z M 8.21875 -9.765625 C 9.03125 -9.765625 9.640625 -9.957031 10.046875 -10.34375 C 10.453125 -10.738281 10.65625 -11.285156 10.65625 -11.984375 C 10.65625 -12.691406 10.453125 -13.238281 10.046875 -13.625 C 9.640625 -14.007812 9.03125 -14.203125 8.21875 -14.203125 L 5.875 -14.203125 L 5.875 -9.765625 Z M 8.21875 -9.765625 "/></g></g></g><g fill="#56667d" fill-opacity="1"><g transform="translate(235.97308, 152.092476)"><g><path d="M 5.875 -14.234375 L 5.875 -10.65625 L 11.640625 -10.65625 L 11.640625 -7.328125 L 5.875 -7.328125 L 5.875 -3.453125 L 12.390625 -3.453125 L 12.390625 0 L 1.5625 0 L 1.5625 -17.6875 L 12.390625 -17.6875 L 12.390625 -14.234375 Z M 5.875 -14.234375 "/></g></g></g><g fill="#56667d" fill-opacity="1"><g transform="translate(259.420672, 152.092476)"><g><path d="M 10.578125 0 L 6.90625 -6.671875 L 5.875 -6.671875 L 5.875 0 L 1.5625 0 L 1.5625 -17.6875 L 8.796875 -17.6875 C 10.179688 -17.6875 11.363281 -17.441406 12.34375 -16.953125 C 13.332031 -16.460938 14.066406 -15.789062 14.546875 -14.9375 C 15.035156 -14.09375 15.28125 -13.148438 15.28125 -12.109375 C 15.28125 -10.941406 14.945312 -9.894531 14.28125 -8.96875 C 13.625 -8.039062 12.648438 -7.382812 11.359375 -7 L 15.4375 0 Z M 5.875 -9.71875 L 8.53125 -9.71875 C 9.320312 -9.71875 9.914062 -9.910156 10.3125 -10.296875 C 10.707031 -10.679688 10.90625 -11.226562 10.90625 -11.9375 C 10.90625 -12.613281 10.707031 -13.144531 10.3125 -13.53125 C 9.914062 -13.914062 9.320312 -14.109375 8.53125 -14.109375 L 5.875 -14.109375 Z M 5.875 -9.71875 "/></g></g></g></svg>